# xmcd
#
# Track frame offsets: 
#        150
#        7887
#        17790
#        31950
#        47377
#        62350
#        70190
#        82597
#        90350
#        102045
#        105957
#        114192
#        127417
#        134637
#        149560
#        164762
#        168780
#        187687
#        198125
#        219357
#        233712
#        244337
#        258040
#        266577
#
# Disc length: 3618 seconds
#
# Revision: 0
# Processed by: cddbd v1.5.2PL0 Copyright (c) Steve Scherf et al.
# Submitted via: ExactAudioCopy v0.99pb5
#
DISCID=2d0e2018
DTITLE=Various Artist - Southern Journey Vol 3:  61 Highway Mississippi
DYEAR=1997
DGENRE=Blues
TTITLE0=Henry Ratcliff - Louisiana
TTITLE1=Ed Young and others - Jim and John
TTITLE2=Fred McDowell - 61 Highway Blues
TTITLE3=Ed Lewis and prisoners - Stewball
TTITLE4=John Dudley - Po' Boy Blues
TTITLE5=A. Burton and congregation - God's Unchanging Hand
TTITLE6=Fred McDowell - Keep Your Lamps Trimmed and Burning
TTITLE7=Sid Hemphill and Lucius Smith - Emmaline, Take Your Time
TTITLE8=Miles and Bob Pratcher - I'm Gonna Live Anyhow 'Till I Die
TTITLE9=Mattie Gardner, Ida Mae Towns and Jesse Lee Pratcher - Little Sa
TTITLE9=lly Walker
TTITLE10=Sid Hemphill and Lucius Smith - Old Devil's Dream
TTITLE11=Rose Hemphill - Rolled and Tumbled
TTITLE12=Leroy Gary - Mama Lucy
TTITLE13=Fred McDowell - Soon One Mornin'
TTITLE14=Ervin Webb and prisoners - I'm Goin' Home
TTITLE15=Ervin Webb - Interview (with)
TTITLE16=Fred McDowell, Miles Pratcher and Fanny Davis - Fred McDowell's
TTITLE16=Blues
TTITLE17=Viola James and congregation - Tryin' to Make Heaven My Home
TTITLE18=Leroy Miller with hoe group - Berta, Berta
TTITLE19=Fred McDowell - Germany Blues
TTITLE20=John Dudley - Clarksdale Mill Blues
TTITLE21=Miles and Bob Pratcher - If It's All Night Long
TTITLE22=Fred McDowell - Lord Have Mercy
TTITLE23=Mrs. Sidney Carter - Didn't Leave Nobody but the Baby
EXTD=
EXTT0=
EXTT1=
EXTT2=
EXTT3=
EXTT4=
EXTT5=
EXTT6=
EXTT7=
EXTT8=
EXTT9=
EXTT10=
EXTT11=
EXTT12=
EXTT13=
EXTT14=
EXTT15=
EXTT16=
EXTT17=
EXTT18=
EXTT19=
EXTT20=
EXTT21=
EXTT22=
EXTT23=
PLAYORDER=
